<svg xmlns="http://www.w3.org/2000/svg" viewBox="0 0 420 300" role="img" aria-labelledby="title desc">
  <title id="title">T-shirt Photo Guide</title>
  <desc id="desc">Black and white outline of a T-shirt for item photo framing guidance.</desc>
  <rect x="1" y="1" width="418" height="298" fill="#fff" stroke="#212529" stroke-width="2"/>
  <rect x="42" y="26" width="336" height="248" fill="none" stroke="#212529" stroke-dasharray="8 6" stroke-width="2"/>
  <path d="M146 250v-92c0-20 16-36 36-36h56c20 0 36 16 36 36v92" fill="none" stroke="#212529" stroke-width="5"/>
  <path d="M182 122l-28 24-30-36 38-28 20 24" fill="none" stroke="#212529" stroke-width="5"/>
  <path d="M238 122l28 24 30-36-38-28-20 24" fill="none" stroke="#212529" stroke-width="5"/>
  <path d="M186 122v-18c0-8 6-14 14-14h20c8 0 14 6 14 14v18" fill="none" stroke="#212529" stroke-width="5"/>
</svg>
